HIERARCHY
ROOT Hips
{
 OFFSET 0.000000 0.000000 0.000000
 CHANNELS 6 Xposition Yposition Zposition Yrotation Xrotation Zrotation
 JOINT Chest
 {
  OFFSET 0.000000 9.585900 0.002600
  CHANNELS 3 Yrotation Xrotation Zrotation
  JOINT Chest2
  {
   OFFSET 0.000000 9.601200 -0.005300
   CHANNELS 3 Yrotation Xrotation Zrotation
   JOINT Chest3
   {
    OFFSET 0.000000 9.561800 0.000000
    CHANNELS 3 Yrotation Xrotation Zrotation
    JOINT Chest4
    {
     OFFSET 0.000000 9.552100 0.000000
     CHANNELS 3 Yrotation Xrotation Zrotation
     JOINT Neck
     {
      OFFSET 0.000000 14.453000 0.000000
      CHANNELS 3 Yrotation Xrotation Zrotation
      JOINT Head
      {
       OFFSET 0.000000 8.936500 -0.011300
       CHANNELS 3 Yrotation Xrotation Zrotation
       End Site
       {
        OFFSET 0.000000 17.073600 -0.006000
       }
      }
     }
     JOINT RightCollar
     {
      OFFSET -2.921100 9.558500 0.000000
      CHANNELS 3 Yrotation Xrotation Zrotation
      JOINT RightShoulder
      {
       OFFSET -13.519700 0.000000 0.000000
       CHANNELS 3 Yrotation Xrotation Zrotation
       JOINT RightElbow
       {
        OFFSET 0.000000 -29.696600 0.000000
        CHANNELS 3 Yrotation Xrotation Zrotation
        JOINT RightWrist
        {
         OFFSET 0.000000 -24.004700 0.000000
         CHANNELS 3 Yrotation Xrotation Zrotation
         End Site
         {
          OFFSET 0.000000 -17.728500 0.000000
         }
        }
       }
      }
     }
     JOINT LeftCollar
     {
      OFFSET 2.921100 9.558500 0.000000
      CHANNELS 3 Yrotation Xrotation Zrotation
      JOINT LeftShoulder
      {
       OFFSET 13.519700 0.000000 0.000000
       CHANNELS 3 Yrotation Xrotation Zrotation
       JOINT LeftElbow
       {
        OFFSET 0.000000 -29.696600 0.000000
        CHANNELS 3 Yrotation Xrotation Zrotation
        JOINT LeftWrist
        {
         OFFSET 0.000000 -24.004700 0.000000
         CHANNELS 3 Yrotation Xrotation Zrotation
         End Site
         {
          OFFSET 0.000000 -17.728500 0.000000
         }
        }
       }
      }
     }
    }
   }
  }
 }
 JOINT RightHip
 {
  OFFSET -7.771700 -0.012900 -0.001300
  CHANNELS 3 Yrotation Xrotation Zrotation
  JOINT RightKnee
  {
   OFFSET 0.000000 -40.869800 0.001200
   CHANNELS 3 Yrotation Xrotation Zrotation
   JOINT RightAnkle
   {
    OFFSET 0.000000 -39.717900 0.002100
    CHANNELS 3 Yrotation Xrotation Zrotation
    JOINT RightToe
    {
     OFFSET 0.000000 -4.965400 11.033500
     CHANNELS 3 Yrotation Xrotation Zrotation
     End Site
     {
      OFFSET 0.000000 -1.423100 5.872300
     }
    }
   }
  }
 }
 JOINT LeftHip
 {
  OFFSET 7.771700 -0.012900 -0.001300
  CHANNELS 3 Yrotation Xrotation Zrotation
  JOINT LeftKnee
  {
   OFFSET 0.000000 -40.869800 0.001200
   CHANNELS 3 Yrotation Xrotation Zrotation
   JOINT LeftAnkle
   {
    OFFSET 0.000000 -39.717900 0.002100
    CHANNELS 3 Yrotation Xrotation Zrotation
    JOINT LeftToe
    {
     OFFSET 0.000000 -4.965400 11.033500
     CHANNELS 3 Yrotation Xrotation Zrotation
     End Site
     {
      OFFSET 0.000000 -1.423100 5.872300
     }
    }
   }
  }
 }
}
MOTION
Frames: 6
Frame Time: 0.008333
-180.590215 48.791815 13.726230 176.952215 -32.775452 -3.524637 0.949540 19.148420 2.364375 0.064621 2.287077 0.250892 0.113052 3.777368 0.408805 0.774914 16.637311 1.993558 3.945560 16.923379 -3.199857 8.398475 -3.964479 -7.300094 -2.033927 -2.801191 -1.314944 4.837272 -8.647146 -14.681207 -33.641532 -55.405932 83.336435 7.601286 8.299747 -13.372820 -0.945907 -1.983595 2.244786 -8.762569 -4.831100 17.008625 68.291910 -81.441809 -105.588014 3.618479 3.848676 6.085799 -4.530451 -51.836473 -6.724733 -164.346595 81.139646 -151.811383 -29.136252 -5.182189 -1.395593 0.205054 -12.021271 -1.393022 -11.302389 -53.946785 18.436237 -70.736430 63.836010 -76.706240 31.048914 8.674220 17.122253 0.010218 0.062444 -0.066165
-180.586789 48.798960 13.712012 176.985901 -32.712052 -3.496568 0.918446 19.116339 2.350082 0.051198 2.262687 0.227825 0.117858 3.776702 0.427324 0.749441 16.608477 1.985564 3.945731 16.857666 -3.187163 8.408781 -4.088259 -7.292526 -2.028207 -2.789767 -1.340065 4.847600 -8.631870 -14.665922 -33.616403 -55.401853 83.310475 7.616417 8.371377 -13.354753 -0.950473 -2.009008 2.260786 -8.719609 -4.660796 16.865843 68.292357 -81.411501 -105.542682 3.614088 3.961886 6.204802 -4.791859 -51.945091 -6.689993 -165.160656 81.206106 -152.653670 -29.104463 -5.057794 -1.627085 0.187277 -12.187226 -1.337150 -11.360705 -53.966239 18.429374 -70.661117 63.827430 -76.676450 31.051859 8.620464 17.126701 -0.001914 0.084573 -0.062291
-180.580495 48.808845 13.697685 177.043673 -32.647402 -3.493339 0.866509 19.075753 2.338866 0.052271 2.262761 0.235976 0.110970 3.761485 0.425759 0.718675 16.580283 1.979010 3.943804 16.782771 -3.169130 8.417933 -4.225476 -7.272184 -2.017738 -2.780660 -1.370734 4.858930 -8.618030 -14.649936 -33.579457 -55.394423 83.283651 7.629148 8.432769 -13.353627 -0.946069 -2.019205 2.258971 -8.679342 -4.505063 16.720579 68.389637 -81.411657 -105.580665 3.605958 4.069051 6.339085 -5.043301 -52.042771 -6.675238 -165.665555 81.243384 -153.174504 -29.012157 -4.910433 -1.845094 0.130772 -12.375495 -1.271834 -11.409713 -54.011238 18.411972 -70.623148 63.824867 -76.656504 31.048520 8.589371 17.159898 -0.006939 0.082691 -0.063913
-180.571747 48.824769 13.677891 177.088428 -32.622209 -3.493668 0.823105 19.059723 2.321790 0.059333 2.273590 0.256553 0.100361 3.747443 0.452953 0.678894 16.554317 1.942907 3.943375 16.701820 -3.140622 8.426740 -4.372682 -7.240396 -2.017156 -2.788988 -1.405112 4.900369 -8.593895 -14.620583 -33.559009 -55.396827 83.243249 7.626917 8.558031 -13.344763 -0.928063 -2.006073 2.239707 -8.637741 -4.373177 16.583512 68.568139 -81.437424 -105.693786 3.594137 4.169490 6.474805 -5.241065 -52.086624 -6.692394 -165.911689 81.254507 -153.410564 -28.910779 -4.765152 -2.040730 0.171367 -12.571158 -1.227207 -11.437308 -54.022495 18.391592 -70.624389 63.827619 -76.666855 31.051668 8.567819 17.172582 -0.009278 0.071880 -0.065516
-180.565089 48.840623 13.661305 177.164316 -32.571282 -3.499481 0.753773 19.035921 2.317923 0.054279 2.264824 0.256222 0.091830 3.733199 0.436351 0.647432 16.528790 1.956389 3.943796 16.620145 -3.113881 8.435845 -4.527938 -7.196846 -2.002281 -2.776133 -1.443498 4.925480 -8.593470 -14.601031 -33.532387 -55.391527 83.211614 7.615404 8.662197 -13.337798 -0.909371 -2.009896 2.232017 -8.576543 -4.232560 16.414411 68.786620 -81.479421 -105.844588 3.575083 4.265956 6.601687 -5.406835 -52.140800 -6.767984 -166.113710 81.247357 -153.575500 -28.784130 -4.658553 -2.233157 0.146691 -12.745901 -1.159345 -11.473317 -54.068053 18.352587 -70.637620 63.838486 -76.684240 31.046487 8.545976 17.184807 -0.006407 0.062375 -0.064522
-180.556355 48.859241 13.643918 177.225716 -32.529266 -3.512591 0.699750 19.023872 2.334887 0.047735 2.250036 0.245631 0.086410 3.720926 0.423231 0.609801 16.504690 1.966256 3.950931 16.536227 -3.078866 8.444354 -4.689083 -7.142010 -1.969654 -2.753955 -1.478168 4.930180 -8.608406 -14.582824 -33.549511 -55.377651 83.220446 7.603964 8.760202 -13.333280 -0.889227 -2.007811 2.234152 -8.493272 -4.108614 16.230832 69.016331 -81.533723 -106.008665 3.551385 4.358790 6.711358 -5.532969 -52.168191 -6.848306 -166.504111 81.249033 -153.908976 -28.645398 -4.590313 -2.428979 0.127879 -12.888297 -1.082649 -11.512911 -54.102976 18.336207 -70.663869 63.848459 -76.719272 31.051767 8.515096 17.203099 -0.007844 0.051153 -0.065043
